<svg aria-hidden="true" style="position:absolute;width:0;height:0" xmlns="http://www.w3.org/2000/svg" overflow="hidden">
    <defs>
        <symbol id="icon-hand-hello" width="48" height="48" viewBox="0 0 48 48" fill="none" xmlns="http://www.w3.org/2000/svg">
            <path d="M25.5 31.725L31.35 32.85L36.15 8.17499C36.45 6.52499 35.4 4.87499 33.825 4.57499C32.175 4.27499 30.6 5.39999 30.3 7.04999L25.5 31.725Z" fill="#FFDD67"/>
            <path d="M33.9 4.575C33.675 4.5 33.525 4.5 33.3 4.5C34.65 5.025 35.4 6.45 35.1 7.95L30.3 32.625L31.35 32.85L36.15 8.175C36.525 6.45 35.475 4.875 33.9 4.575Z" fill="#EBA352"/>
            <path d="M19.5 32.475H26.55V5.25C26.55 3.225 24.975 1.5 23.025 1.5C21.15 1.5 19.5 3.15 19.5 5.25V32.475Z" fill="#FFDD67"/>
            <path d="M23.1 1.5C22.95 1.5 22.725 1.5 22.575 1.575C24.3 1.875 25.575 3.375 25.575 5.25V32.55H26.625V5.25C26.625 3.15 25.05 1.5 23.1 1.5Z" fill="#EBA352"/>
            <path d="M15.75 32.4L21.75 30.825L15.225 5.99999C14.775 4.27499 13.05 3.22499 11.4 3.59999C9.75 4.04999 8.775 5.77499 9.225 7.49999L15.75 32.4Z" fill="#FFDD67"/>
            <path d="M11.4 3.59999L10.95 3.82499C12.45 3.74999 13.8 4.72499 14.25 6.29999L20.775 31.125L21.825 30.825L15.225 5.99999C14.775 4.27499 13.05 3.22499 11.4 3.59999Z" fill="#EBA352"/>
            <path d="M3 10.05C1.575 10.725 1.125 12.525 1.875 14.025L11.775 33.75L16.8 31.2L6.9 11.475C6.15 9.97501 4.425 9.37501 3 10.05Z" fill="#FFDD67"/>
            <path d="M3 10.05C2.85 10.125 2.7 10.2 2.55 10.35C3.825 9.97501 5.25 10.65 5.925 12L15.825 31.725L16.8 31.275L6.9 11.475C6.15 9.97501 4.425 9.37501 3 10.05Z" fill="#EBA352"/>
            <path d="M46.275 21.975C45.075 19.65 41.325 19.8 37.5 24C34.8 26.925 34.275 27.9 31.575 27.825V24.75C31.575 24.75 25.8 20.475 14.325 22.425C14.325 22.425 7.8 23.325 7.8 26.775C7.8 26.775 6.675 35.1 9 40.35C12.45 48.15 30.15 50.175 35.7 36.9C36.825 34.275 39.075 32.325 41.1 29.85C43.425 26.85 47.55 24.45 46.275 21.975Z" fill="#FFDD67"/>
            <path d="M46.275 21.975C46.05 21.525 45.75 21.225 45.375 20.925C45.45 21 45.525 21.075 45.525 21.225C46.8 23.775 42.675 26.1 40.2 29.1C38.175 31.575 35.925 33.525 34.8 36.15C30 47.625 16.05 47.625 10.2 42.375C15.525 48.375 30.525 48.975 35.55 36.9C36.675 34.275 38.925 32.325 40.95 29.85C43.425 26.85 47.55 24.45 46.275 21.975ZM32.325 27.825C27.45 26.025 18.75 29.325 19.95 38.1C19.95 29.925 27.375 27.9 31.425 27.9C32.025 27.825 32.325 27.825 32.325 27.825Z" fill="#EBA352"/>
        </symbol>
        <symbol id="icon-menu" xmlns="http://www.w3.org/2000/svg" viewBox="0 0 40 40">
            <path fill-rule="evenodd" clip-rule="evenodd" d="M8 14.667V12h24v2.667H8Zm0 6.666h24v-2.666H8v2.666ZM8 28h24v-2.667H8V28Z"/>
        </symbol>
        <symbol id="icon-close" xmlns="http://www.w3.org/2000/svg" viewBox="0 0 40 40">
            <path d="M29.667 12.88 27.787 11l-7.454 7.453L12.88 11 11 12.88l7.453 7.453L11 27.787l1.88 1.88 7.453-7.454 7.454 7.454 1.88-1.88-7.454-7.454 7.454-7.453Z"/>
        </symbol>
    </defs>
</svg>