<svg aria-hidden="true" style="position:absolute;width:0;height:0" xmlns="http://www.w3.org/2000/svg" overflow="hidden">
    <defs>
        <symbol id="icon-hand-hello" width="48" height="48" viewBox="0 0 48 48" fill="none" xmlns="http://www.w3.org/2000/svg">
            <path d="M25.5 31.725L31.35 32.85L36.15 8.17499C36.45 6.52499 35.4 4.87499 33.825 4.57499C32.175 4.27499 30.6 5.39999 30.3 7.04999L25.5 31.725Z" fill="#FFDD67"/>
            <path d="M33.9 4.575C33.675 4.5 33.525 4.5 33.3 4.5C34.65 5.025 35.4 6.45 35.1 7.95L30.3 32.625L31.35 32.85L36.15 8.175C36.525 6.45 35.475 4.875 33.9 4.575Z" fill="#EBA352"/>
            <path d="M19.5 32.475H26.55V5.25C26.55 3.225 24.975 1.5 23.025 1.5C21.15 1.5 19.5 3.15 19.5 5.25V32.475Z" fill="#FFDD67"/>
            <path d="M23.1 1.5C22.95 1.5 22.725 1.5 22.575 1.575C24.3 1.875 25.575 3.375 25.575 5.25V32.55H26.625V5.25C26.625 3.15 25.05 1.5 23.1 1.5Z" fill="#EBA352"/>
            <path d="M15.75 32.4L21.75 30.825L15.225 5.99999C14.775 4.27499 13.05 3.22499 11.4 3.59999C9.75 4.04999 8.775 5.77499 9.225 7.49999L15.75 32.4Z" fill="#FFDD67"/>
            <path d="M11.4 3.59999L10.95 3.82499C12.45 3.74999 13.8 4.72499 14.25 6.29999L20.775 31.125L21.825 30.825L15.225 5.99999C14.775 4.27499 13.05 3.22499 11.4 3.59999Z" fill="#EBA352"/>
            <path d="M3 10.05C1.575 10.725 1.125 12.525 1.875 14.025L11.775 33.75L16.8 31.2L6.9 11.475C6.15 9.97501 4.425 9.37501 3 10.05Z" fill="#FFDD67"/>
            <path d="M3 10.05C2.85 10.125 2.7 10.2 2.55 10.35C3.825 9.97501 5.25 10.65 5.925 12L15.825 31.725L16.8 31.275L6.9 11.475C6.15 9.97501 4.425 9.37501 3 10.05Z" fill="#EBA352"/>
            <path d="M46.275 21.975C45.075 19.65 41.325 19.8 37.5 24C34.8 26.925 34.275 27.9 31.575 27.825V24.75C31.575 24.75 25.8 20.475 14.325 22.425C14.325 22.425 7.8 23.325 7.8 26.775C7.8 26.775 6.675 35.1 9 40.35C12.45 48.15 30.15 50.175 35.7 36.9C36.825 34.275 39.075 32.325 41.1 29.85C43.425 26.85 47.55 24.45 46.275 21.975Z" fill="#FFDD67"/>
            <path d="M46.275 21.975C46.05 21.525 45.75 21.225 45.375 20.925C45.45 21 45.525 21.075 45.525 21.225C46.8 23.775 42.675 26.1 40.2 29.1C38.175 31.575 35.925 33.525 34.8 36.15C30 47.625 16.05 47.625 10.2 42.375C15.525 48.375 30.525 48.975 35.55 36.9C36.675 34.275 38.925 32.325 40.95 29.85C43.425 26.85 47.55 24.45 46.275 21.975ZM32.325 27.825C27.45 26.025 18.75 29.325 19.95 38.1C19.95 29.925 27.375 27.9 31.425 27.9C32.025 27.825 32.325 27.825 32.325 27.825Z" fill="#EBA352"/>
        </symbol>
        <symbol id="icon-menu" xmlns="http://www.w3.org/2000/svg" viewBox="0 0 40 40">
            <path fill-rule="evenodd" clip-rule="evenodd" d="M8 14.667V12h24v2.667H8Zm0 6.666h24v-2.666H8v2.666ZM8 28h24v-2.667H8V28Z"/>
        </symbol>
        <symbol id="icon-close" xmlns="http://www.w3.org/2000/svg" viewBox="0 0 40 40">
            <path d="M29.667 12.88 27.787 11l-7.454 7.453L12.88 11 11 12.88l7.453 7.453L11 27.787l1.88 1.88 7.453-7.454 7.454 7.454 1.88-1.88-7.454-7.454 7.454-7.453Z"/>
        </symbol>
        <symbol id="icon-phone" viewBox="0 0 32 32" xmlns="http://www.w3.org/2000/svg">
            <path d="M16 4C9.94667 4 4.45333 6.37334 0.386667 10.2267C0.146667 10.4667 0 10.8 0 11.1733C0 11.5467 0.146667 11.88 0.386667 12.12L3.69333 15.4267C3.94308 15.6736 4.27942 15.8132 4.63062 15.8157C4.98183 15.8182 5.32011 15.6834 5.57333 15.44C6.62667 14.4533 7.82667 13.6267 9.12 12.9733C9.56 12.76 9.86667 12.3067 9.86667 11.7733V7.64C11.8 7 13.8533 6.66667 16 6.66667C18.12 6.66667 20.1867 7 22.12 7.62667V11.76C22.12 12.28 22.4267 12.7467 22.8667 12.96C24.1733 13.6133 25.3333 14.4533 26.4267 15.4267C26.6667 15.6667 27 15.8 27.3333 15.8C27.7333 15.8 28.0667 15.6533 28.3067 15.4133L31.6133 12.1067C31.8533 11.8667 32 11.5333 32 11.16C32 10.7867 31.84 10.4667 31.6 10.2267C27.3919 6.22582 21.8064 3.99641 16 4ZM12 9.33334V13.3333C12 13.3333 4 20 4 24V29.3333H28V24C28 20 20 13.3333 20 13.3333V9.33334H17.3333V12H14.6667V9.33334H12ZM16 16C17.4145 16 18.771 16.5619 19.7712 17.5621C20.7714 18.5623 21.3333 19.9188 21.3333 21.3333C21.3333 22.7478 20.7714 24.1044 19.7712 25.1046C18.771 26.1048 17.4145 26.6667 16 26.6667C14.5855 26.6667 13.229 26.1048 12.2288 25.1046C11.2286 24.1044 10.6667 22.7478 10.6667 21.3333C10.6667 19.9188 11.2286 18.5623 12.2288 17.5621C13.229 16.5619 14.5855 16 16 16ZM16 18C15.1159 18 14.2681 18.3512 13.643 18.9763C13.0179 19.6014 12.6667 20.4493 12.6667 21.3333C12.6667 22.2174 13.0179 23.0652 13.643 23.6904C14.2681 24.3155 15.1159 24.6667 16 24.6667C16.8841 24.6667 17.7319 24.3155 18.357 23.6904C18.9821 23.0652 19.3333 22.2174 19.3333 21.3333C19.3333 20.4493 18.9821 19.6014 18.357 18.9763C17.7319 18.3512 16.8841 18 16 18Z" />
        </symbol>
        <symbol id="icon-email" viewBox="0 0 32 32" xmlns="http://www.w3.org/2000/svg">
            <path d="M29.3334 7.99992C29.3334 6.53325 28.1334 5.33325 26.6667 5.33325H5.33341C3.86675 5.33325 2.66675 6.53325 2.66675 7.99992V23.9999C2.66675 25.4666 3.86675 26.6666 5.33341 26.6666H26.6667C28.1334 26.6666 29.3334 25.4666 29.3334 23.9999V7.99992ZM26.6667 7.99992L16.0001 14.6666L5.33341 7.99992H26.6667ZM26.6667 23.9999H5.33341V10.6666L16.0001 17.3333L26.6667 10.6666V23.9999Z"/>
        </symbol>
        <symbol id="icon-linkedin" viewBox="0 0 32 32" xmlns="http://www.w3.org/2000/svg">
            <path d="M17.3333 28H12V12H17.3333V14.6667C17.8948 13.9524 18.6074 13.3712 19.42 12.9647C20.2326 12.5583 21.125 12.3368 22.0333 12.316C23.6219 12.3248 25.142 12.9632 26.2606 14.0912C27.3791 15.2193 28.0046 16.7448 28 18.3333V28H22.6667V19C22.5635 18.2794 22.2036 17.6204 21.6531 17.1441C21.1026 16.6678 20.3986 16.4064 19.6707 16.408C19.3449 16.4183 19.0245 16.4943 18.7288 16.6315C18.4331 16.7686 18.1682 16.9641 17.9499 17.2062C17.7316 17.4482 17.5645 17.7319 17.4585 18.0402C17.3526 18.3484 17.31 18.6749 17.3333 19V28ZM9.33333 28H4V12H9.33333V28ZM6.66667 9.33333C5.95942 9.33333 5.28115 9.05238 4.78105 8.55229C4.28095 8.05219 4 7.37391 4 6.66667C4 5.95942 4.28095 5.28115 4.78105 4.78105C5.28115 4.28095 5.95942 4 6.66667 4C7.37391 4 8.05219 4.28095 8.55228 4.78105C9.05238 5.28115 9.33333 5.95942 9.33333 6.66667C9.33333 7.37391 9.05238 8.05219 8.55228 8.55229C8.05219 9.05238 7.37391 9.33333 6.66667 9.33333Z"/>
        </symbol>
        <symbol id="icon-instagram" viewBox="0 0 32 32" xmlns="http://www.w3.org/2000/svg">
            <path d="M21.3888 2.66675H10.61C8.50383 2.66922 6.48468 3.50708 4.99553 4.99647C3.50638 6.48587 2.66887 8.50517 2.66675 10.6113L2.66675 21.3902C2.66922 23.4963 3.50708 25.5155 4.99647 27.0046C6.48587 28.4938 8.50517 29.3313 10.6113 29.3334H21.3902C23.4963 29.3309 25.5155 28.4931 27.0046 27.0037C28.4938 25.5143 29.3313 23.495 29.3334 21.3888V10.61C29.3309 8.50383 28.4931 6.48468 27.0037 4.99553C25.5143 3.50638 23.495 2.66887 21.3888 2.66675V2.66675ZM26.6514 21.3888C26.6514 22.0799 26.5153 22.7643 26.2508 23.4027C25.9863 24.0412 25.5987 24.6214 25.11 25.11C24.6214 25.5987 24.0412 25.9863 23.4027 26.2508C22.7643 26.5153 22.0799 26.6514 21.3888 26.6514H10.61C9.2145 26.651 7.8763 26.0964 6.88967 25.1096C5.90304 24.1227 5.34877 22.7843 5.34877 21.3888V10.61C5.34913 9.2145 5.90373 7.8763 6.89061 6.88967C7.87749 5.90304 9.21584 5.34877 10.6113 5.34877H21.3902C22.7857 5.34913 24.1239 5.90373 25.1105 6.89061C26.0971 7.87749 26.6514 9.21584 26.6514 10.6113V21.3902V21.3888Z"/>
            <path d="M15.7582 9.09204C13.9913 9.09477 12.2974 9.798 11.0481 11.0476C9.7988 12.2971 9.0959 13.9911 9.09351 15.7581C9.09556 17.5255 9.79848 19.22 11.0481 20.4698C12.2978 21.7197 13.9921 22.423 15.7595 22.4254C17.5272 22.4233 19.2218 21.7202 20.4718 20.4703C21.7217 19.2204 22.4248 17.5257 22.4268 15.7581C22.4241 13.9906 21.7205 12.2964 20.4704 11.047C19.2203 9.79764 17.5257 9.09504 15.7582 9.09333V9.09204ZM15.7582 19.8328C14.6779 19.8328 13.6418 19.4037 12.8779 18.6397C12.1139 17.8758 11.6848 16.8397 11.6848 15.7594C11.6848 14.679 12.1139 13.6429 12.8779 12.879C13.6418 12.1151 14.6779 11.6859 15.7582 11.6859C16.8386 11.6859 17.8747 12.1151 18.6386 12.879C19.4025 13.6429 19.8317 14.679 19.8317 15.7594C19.8317 16.8397 19.4025 17.8758 18.6386 18.6397C17.8747 19.4037 16.8386 19.8328 15.7582 19.8328V19.8328Z" />
            <path d="M22.5587 10.1613C23.2951 10.1613 23.892 9.56434 23.892 8.82796C23.892 8.09158 23.2951 7.49463 22.5587 7.49463C21.8223 7.49463 21.2253 8.09158 21.2253 8.82796C21.2253 9.56434 21.8223 10.1613 22.5587 10.1613Z" />
        </symbol> 
        <symbol id="icon-behance" viewBox="0 0 32 32" xmlns="http://www.w3.org/2000/svg">
            <path d="M21.3735 13.1733H18.0335V12.344H21.3748V13.1747L21.3735 13.1733ZM15.8095 16.5773C16.0255 16.9107 16.1322 17.316 16.1322 17.792C16.1322 18.2853 16.0122 18.7253 15.7642 19.116C15.599 19.3904 15.3781 19.6272 15.1159 19.8112C14.8536 19.9951 14.5558 20.1221 14.2415 20.184C13.8557 20.2612 13.463 20.2987 13.0695 20.296H9.3335V12H13.3402C14.3495 12.016 15.0655 12.3093 15.4882 12.884C15.7415 13.236 15.8682 13.6587 15.8682 14.1507C15.8682 14.6573 15.7415 15.064 15.4842 15.372C15.3428 15.5453 15.1322 15.7027 14.8535 15.844C15.2748 15.9987 15.5948 16.2413 15.8095 16.5773ZM11.2468 15.2707H13.0028C13.3628 15.2707 13.6548 15.2027 13.8788 15.0653C14.1042 14.928 14.2162 14.6853 14.2162 14.336C14.2162 13.9493 14.0682 13.6933 13.7708 13.5707C13.4531 13.4755 13.1224 13.4314 12.7908 13.44H11.2468V15.2707ZM14.3855 17.6733C14.3855 17.2427 14.2082 16.9453 13.8575 16.7853C13.6602 16.6947 13.3828 16.648 13.0282 16.644H11.2468V18.8547H13.0002C13.3602 18.8547 13.6402 18.808 13.8402 18.7093C14.2028 18.5293 14.3855 18.1853 14.3855 17.6733ZM22.6135 16.324C22.6535 16.596 22.6722 16.9893 22.6655 17.504H18.3388C18.3628 18.1013 18.5682 18.5187 18.9602 18.7573C19.1948 18.908 19.4802 18.9813 19.8162 18.9813C20.1695 18.9813 20.4562 18.892 20.6788 18.708C20.8114 18.5948 20.9198 18.456 20.9975 18.3H22.5842C22.5415 18.6533 22.3508 19.0107 22.0082 19.3747C21.4748 19.952 20.7308 20.2413 19.7722 20.2413C19.0102 20.2512 18.2691 19.9925 17.6788 19.5107C17.0762 19.0227 16.7722 18.2307 16.7722 17.1307C16.7722 16.1 17.0455 15.3107 17.5908 14.7613C18.1375 14.2107 18.8455 13.9373 19.7175 13.9373C20.2335 13.9373 20.6988 14.0293 21.1148 14.2147C21.5282 14.4013 21.8708 14.6933 22.1402 15.0947C22.3842 15.4493 22.5402 15.8573 22.6135 16.324ZM21.0535 16.4787C21.0242 16.0653 20.8855 15.7533 20.6375 15.54C20.3815 15.322 20.0536 15.207 19.7175 15.2173C19.3175 15.2173 19.0095 15.3333 18.7895 15.5587C18.5695 15.7853 18.4322 16.092 18.3762 16.4787H21.0535Z" />
            <path d="M8.00008 5.33341C7.29284 5.33341 6.61456 5.61437 6.11446 6.11446C5.61437 6.61456 5.33341 7.29284 5.33341 8.00008V24.0001C5.33341 24.7073 5.61437 25.3856 6.11446 25.8857C6.61456 26.3858 7.29284 26.6667 8.00008 26.6667H24.0001C24.7073 26.6667 25.3856 26.3858 25.8857 25.8857C26.3858 25.3856 26.6667 24.7073 26.6667 24.0001V8.00008C26.6667 7.29284 26.3858 6.61456 25.8857 6.11446C25.3856 5.61437 24.7073 5.33341 24.0001 5.33341H8.00008ZM8.00008 2.66675H24.0001C25.4146 2.66675 26.7711 3.22865 27.7713 4.22885C28.7715 5.22904 29.3334 6.58559 29.3334 8.00008V24.0001C29.3334 25.4146 28.7715 26.7711 27.7713 27.7713C26.7711 28.7715 25.4146 29.3334 24.0001 29.3334H8.00008C6.58559 29.3334 5.22904 28.7715 4.22885 27.7713C3.22865 26.7711 2.66675 25.4146 2.66675 24.0001V8.00008C2.66675 6.58559 3.22865 5.22904 4.22885 4.22885C5.22904 3.22865 6.58559 2.66675 8.00008 2.66675V2.66675Z"/>
        </symbol> 
        <symbol id="icon-github" viewBox="0 0 32 32" xmlns="http://www.w3.org/2000/svg">
            <path d="M28.4359 15.0999C27.2359 14.8969 25.9859 14.7639 24.9699 14.7279L24.7899 14.7219C24.8319 14.6319 24.8629 14.5719 24.8729 14.5619C24.8949 14.5439 24.9129 14.4679 24.9149 14.3939C24.9149 14.3539 24.9329 14.2199 24.9609 14.0439C25.2369 14.0539 25.6009 14.0619 26.0009 14.0639C27.5369 14.0769 29.1449 14.2009 30.2479 14.3959C30.9049 14.5119 31.1219 14.5079 30.6379 14.3899C30.1459 14.2699 28.6899 14.0959 27.5299 14.0199C26.6793 13.9687 25.8271 13.948 24.9749 13.9579C24.9949 13.8439 25.0149 13.7179 25.0389 13.5879C25.1309 13.0839 25.1619 12.5779 25.1639 11.5709C25.1659 10.0109 25.0819 9.58092 24.5739 8.54692C24.382 8.14855 24.1383 7.77732 23.8489 7.44292C24.0959 6.71292 24.0889 5.58492 23.8339 4.59492C23.6239 3.78292 23.5489 3.73092 22.8139 3.88692C22.1889 4.01992 21.6889 4.20092 21.0479 4.52392C20.7439 4.67692 20.3259 4.91392 20.0229 5.10192C19.2329 4.82492 18.4159 4.64192 17.5429 4.54192C16.6599 4.44192 14.4929 4.49792 13.7229 4.63992C12.9729 4.77992 12.2949 4.94992 11.6829 5.14992C11.3759 4.96192 10.9329 4.70692 10.6149 4.54692C9.97095 4.22292 9.47095 4.04292 8.84495 3.90992C8.11095 3.75292 8.03495 3.80592 7.82495 4.61792C7.56495 5.62092 7.56295 6.76792 7.81995 7.49592C7.84995 7.57892 7.86795 7.63792 7.87495 7.68392C6.83295 8.99592 6.49295 10.4639 6.71895 12.5139C6.77895 13.0469 6.86895 13.5369 6.99695 13.9859C6.33195 13.9819 5.38695 14.0059 4.70295 14.0499C3.54095 14.1269 2.08495 14.2999 1.59295 14.4199C1.10995 14.5369 1.32495 14.5399 1.98295 14.4259C3.08595 14.2319 4.69495 14.1059 6.23095 14.0959C6.52095 14.0939 6.79095 14.0879 7.02495 14.0819C7.09495 14.3189 7.17495 14.5449 7.26495 14.7599H7.25995C6.24495 14.7959 4.99595 14.9299 3.79495 15.1299C2.89495 15.2819 1.56495 15.5839 1.40895 15.6699C1.24495 15.7619 1.37895 15.7419 2.07595 15.5649C3.34895 15.2429 5.00395 14.9949 7.05395 14.8249L7.28395 14.8049C7.72395 15.8249 8.40095 16.6049 9.35895 17.2149C9.94495 17.5869 10.8839 17.9699 11.3569 18.0299C11.4869 18.0459 11.8649 18.1239 12.1969 18.2019C12.5299 18.2799 13.1809 18.3969 13.6429 18.4639H13.6529L13.6289 18.4799C13.0689 18.7699 12.7049 19.2239 12.4589 19.9369C12.3489 19.9699 12.2129 20.0149 12.0649 20.0669C11.5349 20.2469 11.3299 20.2829 10.7949 20.2869C10.2379 20.2909 10.1049 20.2669 9.77495 20.1109C9.26322 19.8593 8.8348 19.4656 8.54095 18.9769C8.04095 18.1509 7.17395 17.5669 6.45095 17.5669C5.83495 17.5669 5.71795 17.8169 6.16395 18.1819C6.83595 18.7319 7.33795 19.2919 7.54395 19.7199L7.94095 20.5439C8.05095 20.7709 8.28295 21.0789 8.50495 21.2919C9.02695 21.7899 9.53095 22.0279 10.2829 22.1399C10.7869 22.2139 10.9109 22.2139 11.5059 22.1379C11.7929 22.1029 12.0359 22.0619 12.2519 22.0109V22.8649C12.2519 24.6309 12.2319 25.1989 12.1619 25.3649C12.0289 25.6809 11.7319 26.0049 11.4449 26.1519C11.1579 26.2989 11.0689 26.4599 11.1899 26.6079C11.2579 26.6879 11.3869 26.7019 11.8199 26.6739C12.6419 26.6239 13.2229 26.3189 13.5199 25.7839C13.6139 25.6109 13.6359 25.2639 13.6659 23.4639C13.6979 21.5119 13.7119 21.3239 13.8389 21.0439C13.9149 20.8789 14.0259 20.6989 14.0889 20.6499C14.1919 20.5639 14.1989 20.7339 14.1989 23.0699C14.1989 25.6479 14.1719 25.9599 13.9139 26.4549C13.8559 26.5679 13.7459 26.7149 13.6689 26.7849C13.5339 26.9079 13.4769 27.2229 13.5709 27.3179C13.7259 27.4719 14.5029 27.2299 14.9269 26.8959C15.6489 26.3239 15.7349 25.8509 15.7409 22.4359L15.7439 20.4309L15.9639 20.4509L16.1819 20.4709L16.2179 23.0909C16.2579 26.0429 16.2639 26.0859 16.7659 26.6559C17.0509 26.9779 17.3379 27.1559 17.8059 27.2959C18.4299 27.4829 18.6179 27.1929 18.1979 26.6899C17.7409 26.1419 17.7179 25.9329 17.7439 22.6949C17.7609 20.6189 17.7609 20.6189 17.8939 20.7399C18.1769 20.9959 18.2309 21.4159 18.2309 23.3629C18.2309 25.7809 18.3009 26.0109 19.1539 26.4329C19.5539 26.6279 19.6639 26.6529 20.1759 26.6529C20.7199 26.6559 20.7529 26.6479 20.7729 26.5059C20.7899 26.3909 20.7229 26.3129 20.4689 26.1579C20.1554 25.9728 19.9078 25.6941 19.7609 25.3609C19.7059 25.2349 19.6689 24.4029 19.6439 22.6909C19.6079 20.2969 19.5999 20.1879 19.4509 19.8129C19.2509 19.3089 18.9429 18.9109 18.5539 18.6469C18.4539 18.5809 18.3519 18.5269 18.2209 18.4849C18.3809 18.4689 18.5379 18.4519 18.6889 18.4299C20.2609 18.2199 21.0919 18.0459 21.7589 17.7879C23.1689 17.2449 24.1239 16.3429 24.6409 15.0639C24.6869 14.9499 24.7329 14.8419 24.7709 14.7539L25.1709 14.7879C27.2209 14.9609 28.8759 15.2079 30.1489 15.5309C30.8469 15.7089 30.9789 15.7309 30.8169 15.6369C30.6649 15.5519 29.3349 15.2509 28.4349 15.0999H28.4359ZM22.4219 15.0679C22.1889 15.5799 21.5389 16.2379 21.0139 16.4959C20.4959 16.7519 19.6839 16.9459 18.7639 17.0399C18.1339 17.1039 14.6269 17.1229 14.0479 17.0659C12.1309 16.8779 11.0579 16.5089 10.2649 15.7699C9.51495 15.0679 9.16495 14.1149 9.22495 12.9419C9.26495 12.2079 9.44195 11.7469 9.90495 11.1869C10.3249 10.6769 10.7689 10.3619 11.2909 10.2019C11.7289 10.0679 13.0709 10.0559 14.8729 10.1719C15.6699 10.2219 16.3289 10.2219 17.1249 10.1719C19.0109 10.0519 20.2699 10.0659 20.7349 10.2099C21.4649 10.4359 22.1319 11.0439 22.5319 11.8539C22.7119 12.2159 22.7479 12.3699 22.7739 12.9289C22.8099 13.6989 22.6769 14.5159 22.4239 15.0669L22.4219 15.0679ZM12.9119 11.7619C11.8389 11.5739 11.2259 13.4119 12.0489 14.3489C12.4389 14.7929 12.7859 14.8659 13.2189 14.5959C13.6219 14.3459 13.8389 13.8759 13.8389 13.2679C13.8389 12.4559 13.4709 11.8599 12.9109 11.7599L12.9119 11.7619ZM19.4249 11.8719C18.3519 11.6839 17.7379 13.5189 18.5609 14.4579C18.9539 14.9029 19.3009 14.9779 19.7349 14.7049C20.1349 14.4549 20.3549 13.9849 20.3549 13.3769C20.3549 12.5689 19.9849 11.9709 19.4249 11.8719ZM16.5389 15.4839C16.5149 15.5579 16.4029 15.6679 16.2889 15.7269C16.0039 15.8739 15.7989 15.8229 15.4959 15.5469C15.3089 15.3789 15.2239 15.2899 15.1659 15.4669C15.1139 15.6309 15.4459 15.9599 15.7039 16.0609C15.9399 16.1559 16.1089 16.1589 16.3639 16.0509C16.6189 15.9459 16.8409 15.6609 16.8409 15.4759C16.8409 15.3039 16.5939 15.3119 16.5379 15.4859L16.5389 15.4839ZM16.2209 14.9089C16.3839 14.7639 16.4209 14.4689 16.2649 14.3109C16.1089 14.1529 15.7919 14.1779 15.6679 14.3539C15.5229 14.5599 15.5999 14.7169 15.7029 14.8839C15.8629 15.0079 16.0779 15.0339 16.2199 14.9079L16.2209 14.9089Z" />
        </symbol>
        <symbol id="icon-telegram" viewBox="0 0 48 48" xmlns="http://www.w3.org/2000/svg">
            <path d="M44.8785 9.2445L38.541 39.132C38.0625 41.241 36.816 41.766 35.0445 40.773L25.3875 33.657L20.7285 38.139C20.2125 38.655 19.782 39.0855 18.7875 39.0855L19.482 29.2515L37.3785 13.08C38.157 12.387 37.209 12.0015 36.1695 12.696L14.0445 26.628L4.51954 23.646C2.44804 22.9995 2.41054 21.5745 4.95154 20.58L42.207 6.2265C43.932 5.58 45.441 6.6105 44.8785 9.246V9.2445Z" />
        </symbol>  
    </defs>
</svg>